<?xml version="1.0" encoding="UTF-8" standalone="no"?>
<!-- Generator: Adobe Illustrator 19.0.0, SVG Export Plug-In . SVG Version: 6.00 Build 0)  -->

<svg
   xmlns:dc="http://purl.org/dc/elements/1.1/"
   xmlns:cc="http://creativecommons.org/ns#"
   xmlns:rdf="http://www.w3.org/1999/02/22-rdf-syntax-ns#"
   xmlns:svg="http://www.w3.org/2000/svg"
   xmlns="http://www.w3.org/2000/svg"
   xmlns:sodipodi="http://sodipodi.sourceforge.net/DTD/sodipodi-0.dtd"
   xmlns:inkscape="http://www.inkscape.org/namespaces/inkscape"
   version="1.1"
   id="Capa_1"
   x="0px"
   y="0px"
   viewBox="0 0 469.333 469.333"
   style="enable-background:new 0 0 469.333 469.333;"
   xml:space="preserve"
   sodipodi:docname="restorescreen.svg"
   inkscape:version="0.92.1 r15371"><metadata
     id="metadata51"><rdf:RDF><cc:Work
         rdf:about=""><dc:format>image/svg+xml</dc:format><dc:type
           rdf:resource="http://purl.org/dc/dcmitype/StillImage" /></cc:Work></rdf:RDF></metadata><defs
     id="defs49" /><sodipodi:namedview
     pagecolor="#ffffff"
     bordercolor="#666666"
     borderopacity="1"
     objecttolerance="10"
     gridtolerance="10"
     guidetolerance="10"
     inkscape:pageopacity="0"
     inkscape:pageshadow="2"
     inkscape:window-width="640"
     inkscape:window-height="480"
     id="namedview47"
     showgrid="false"
     inkscape:zoom="0.50284126"
     inkscape:cx="234.6665"
     inkscape:cy="234.6665"
     inkscape:window-x="0"
     inkscape:window-y="0"
     inkscape:window-maximized="0"
     inkscape:current-layer="Capa_1" /><g
     id="g14"
     style="fill:#f9f9f9"><g
       id="g12"
       style="fill:#f9f9f9"><g
         id="g10"
         style="fill:#f9f9f9"><path
           d="M160,0h-21.333C132.771,0,128,4.771,128,10.667V128H10.667C4.771,128,0,132.771,0,138.667V160     c0,5.896,4.771,10.667,10.667,10.667H160c5.896,0,10.667-4.771,10.667-10.667V10.667C170.667,4.771,165.896,0,160,0z"
           id="path2"
           style="fill:#f9f9f9" /><path
           d="M458.667,128H341.333V10.667C341.333,4.771,336.563,0,330.667,0h-21.333c-5.896,0-10.667,4.771-10.667,10.667V160     c0,5.896,4.771,10.667,10.667,10.667h149.333c5.896,0,10.667-4.771,10.667-10.667v-21.333     C469.333,132.771,464.563,128,458.667,128z"
           id="path4"
           style="fill:#f9f9f9" /><path
           d="M458.667,298.667H309.333c-5.896,0-10.667,4.771-10.667,10.667v149.333c0,5.896,4.771,10.667,10.667,10.667h21.333     c5.896,0,10.667-4.771,10.667-10.667V341.333h117.333c5.896,0,10.667-4.771,10.667-10.667v-21.333     C469.333,303.437,464.563,298.667,458.667,298.667z"
           id="path6"
           style="fill:#f9f9f9" /><path
           d="M160,298.667H10.667C4.771,298.667,0,303.437,0,309.333v21.333c0,5.896,4.771,10.667,10.667,10.667H128v117.333     c0,5.896,4.771,10.667,10.667,10.667H160c5.896,0,10.667-4.771,10.667-10.667V309.333     C170.667,303.437,165.896,298.667,160,298.667z"
           id="path8"
           style="fill:#f9f9f9" /></g></g></g><g
     id="g16" /><g
     id="g18" /><g
     id="g20" /><g
     id="g22" /><g
     id="g24" /><g
     id="g26" /><g
     id="g28" /><g
     id="g30" /><g
     id="g32" /><g
     id="g34" /><g
     id="g36" /><g
     id="g38" /><g
     id="g40" /><g
     id="g42" /><g
     id="g44" /></svg>